<?xml version="1.0" encoding="utf-8"?>
<!-- Generator: Adobe Illustrator 16.0.0, SVG Export Plug-In . SVG Version: 6.00 Build 0)  -->
<!DOCTYPE svg PUBLIC "-//W3C//DTD SVG 1.1//EN" "http://www.w3.org/Graphics/SVG/1.1/DTD/svg11.dtd">
<svg version="1.1" id="Capa_1" xmlns="http://www.w3.org/2000/svg" xmlns:xlink="http://www.w3.org/1999/xlink" x="0px" y="0px"
	 width="24px" height="24px" viewBox="0 0 24 24" enable-background="new 0 0 24 24" xml:space="preserve">
<circle fill="#FFFFFF" stroke="#FFFFFF" stroke-miterlimit="10" cx="12.001" cy="10.25" r="9"/>
<g id="Capa_1_1_" display="none">
	<circle display="inline" fill="#9A7D22" cx="12" cy="10.4" r="10"/>
</g>
<g id="Capa_3">
	<path fill="#B5343A" d="M11.997,0.001L11.997,0.001c-5.66-0.085-10.315,4.434-10.4,10.093c0,0.044,0,0.089,0,0.133
		c0,3.126,1.311,5.527,3.563,7.753c2.972,2.929,5.813,5.599,5.813,5.599c0.311,0.3,0.736,0.45,1.167,0.412v-0.412l0,0V24
		c0.367-0.079,0.715-0.232,1.021-0.455c0,0,2.741-2.74,5.696-5.652c2.254-2.221,3.547-4.533,3.547-7.677
		C22.376,4.547,17.759-0.027,12.09,0C12.06,0,12.028,0,11.997,0.001z M11.997,19c-4.946,0.003-8.957-4.004-8.959-8.949
		c-0.003-4.945,4.003-8.956,8.948-8.959c4.944-0.002,8.956,4.003,8.958,8.949c0,0.003,0,0.007,0,0.011
		C20.939,14.995,16.936,19,11.991,19H11.997z"/>
</g>
<polygon points="-21,17.061 -21,17.061 -20.997,17.058 "/>
<polygon points="-19.537,14.783 -19.537,14.783 -19.537,14.783 "/>
<path d="M-19.283,16.273c-0.239,0.261-0.496,0.504-0.714,0.784C-19.778,16.777-19.527,16.529-19.283,16.273z"/>
<path fill="#B5343A" d="M20.521,10.065c0.487,0.562,0.592,0.681,0.921,1.059v-0.677c-0.197-0.234-0.415-0.445-0.625-0.642v0.533
	c-0.378-0.396-0.705-0.854-0.969-1.358c-0.677-1.135-1.438-2.428-2.814-2.514c-0.897,0.049-1.72,0.582-2.22,1.437
	c-0.588-0.811-1.465-1.273-2.383-1.256c-1.205-0.047-2.307,0.772-2.765,2.054C9.391,8.578,9.079,8.441,8.678,8.276
	C6.751,7.498,4.895,9.113,3.9,10.265c-0.046,0.474-0.234,0.784-0.458,1.053c-0.15,0.181-0.305,0.355-0.439,0.553
	c0,0-0.001,0.003-0.001,0.003v3.603c0.226-0.012,0.436-0.039,0.625-0.086v-3.783c0.388-0.544,2.639-3.547,4.821-2.665
	C9.116,9.217,9.56,9.425,9.942,9.597c1.005,0.484,2.053,0.837,3.127,1.057l-0.113,0.159c-1.789,2.291-4.859,3.191-5.76,3.412H7.103
	c-0.16,0.063-0.245,0.264-0.19,0.449c0.001,0,0.001,0.002,0.002,0.002c0.046,0.15,0.169,0.25,0.307,0.246h0.1
	c1.213-0.295,4.233-1.25,6.098-3.636c0.312-0.43,0.597-0.884,0.856-1.357c0.732-1.256,1.631-2.831,2.7-2.759
	s1.714,1.157,2.333,2.206c0.348,0.748,0.87,1.37,1.508,1.796v3.237c0.193,0.057,0.409,0.076,0.625,0.078v-3.362
	C21.112,10.746,21.008,10.626,20.521,10.065z M13.763,9.541l-0.288,0.496h-0.043c-1.115-0.217-2.204-0.578-3.246-1.078
	c0.362-1.01,1.239-1.647,2.188-1.595c0.794-0.038,1.549,0.383,2.015,1.121C14.161,8.836,13.95,9.203,13.763,9.541z"/>
<g>
	<path fill="#B5343A" stroke="#FFFFFF" stroke-width="0.25" stroke-miterlimit="10" d="M17.276,8.804
		c-0.14-0.093-0.312-0.124-0.473-0.083c-0.265,0.027-0.909,0.325-2.4-1.321c-0.244-0.302-0.618-0.469-1.006-0.448l0,0
		c-0.272,0.012-0.534,0.109-0.748,0.278c-0.848,0.628-1.916,2.443-2.224,3.058c-0.118,0.225-0.069,0.5,0.119,0.669l-0.441,0.785
		l-1.035-0.598c-0.242-0.141-0.551-0.059-0.691,0.183c0,0,0,0,0,0.001l-1.81,3.124c-0.139,0.245-0.056,0.555,0.186,0.696
		l0.373,0.208c-0.075,0.404,0.192,0.793,0.597,0.868c0.319,0.061,0.641-0.095,0.793-0.382c0.111-0.191,0.131-0.424,0.053-0.632
		l2.392-4.133c0.187-0.016,0.353-0.126,0.441-0.292c0.305-0.603,0.654-1.181,1.046-1.731c0.076,0.443,0.1,0.894,0.073,1.343
		c-0.045,0.296-0.03,0.599,0.044,0.89c0.048,0.1,0.109,0.194,0.184,0.277l-2.027,3.679c-0.14,0.272-0.031,0.607,0.242,0.747
		c0.074,0.037,0.154,0.059,0.236,0.061c0.198,0,0.38-0.107,0.479-0.277l1.994-3.614l2.149,3.614
		c0.097,0.168,0.275,0.273,0.469,0.277c0.099,0,0.193-0.025,0.279-0.075c0.255-0.157,0.341-0.49,0.19-0.75l-2.163-3.647
		c0.193-0.21,0.277-0.498,0.226-0.778l-0.136-1.69c0.557,0.438,1.238,0.69,1.947,0.72c0.154,0.002,0.309-0.016,0.459-0.056
		c0.125-0.028,0.234-0.102,0.31-0.206C17.572,9.322,17.517,8.983,17.276,8.804z M8.157,15.634c-0.091,0.166-0.299,0.226-0.465,0.134
		c-0.165-0.091-0.225-0.299-0.133-0.465c0.091-0.165,0.299-0.226,0.465-0.133c0.006,0.004,0.013,0.007,0.019,0.011
		C8.195,15.277,8.246,15.478,8.157,15.634z"/>
	<circle fill="#B5343A" stroke="#FFFFFF" stroke-width="0.25" stroke-miterlimit="10" cx="13.416" cy="5.382" r="1.329"/>
</g>
</svg>
