<?xml version="1.0" encoding="utf-8"?>
<!-- Generator: Adobe Illustrator 16.0.0, SVG Export Plug-In . SVG Version: 6.00 Build 0)  -->
<!DOCTYPE svg PUBLIC "-//W3C//DTD SVG 1.1//EN" "http://www.w3.org/Graphics/SVG/1.1/DTD/svg11.dtd">
<svg version="1.1" id="Capa_1" xmlns="http://www.w3.org/2000/svg" xmlns:xlink="http://www.w3.org/1999/xlink" x="0px" y="0px"
	 width="24px" height="24px" viewBox="0 0 24 24" enable-background="new 0 0 24 24" xml:space="preserve">
<circle fill="#FFFFFF" stroke="#FFFFFF" stroke-miterlimit="10" cx="12.001" cy="10.25" r="9"/>
<g id="Capa_1_1_" display="none">
	<circle display="inline" fill="#9A7D22" cx="12" cy="10.4" r="10"/>
</g>
<g id="Capa_3">
	<path fill="#EBC32E" d="M11.998,0.001L11.998,0.001C6.338-0.084,1.682,4.435,1.597,10.094c0,0.044,0,0.089,0,0.133
		c0,3.126,1.311,5.527,3.563,7.753c2.972,2.929,5.813,5.599,5.813,5.599c0.311,0.3,0.737,0.45,1.167,0.412v-0.412l0,0V24
		c0.368-0.079,0.715-0.232,1.021-0.455c0,0,2.741-2.74,5.696-5.652c2.254-2.221,3.547-4.533,3.547-7.677
		C22.377,4.547,17.76-0.027,12.091,0C12.06,0,12.029,0,11.998,0.001z M11.998,19c-4.946,0.003-8.957-4.004-8.959-8.949
		c-0.003-4.945,4.003-8.956,8.948-8.959c4.945-0.002,8.957,4.003,8.958,8.949c0,0.003,0,0.007,0,0.011
		C20.941,14.995,16.936,19,11.992,19H11.998z"/>
</g>
<g>
	<path fill="#EBC32E" d="M9.412,11.565c-0.208,0.165-0.449,0.284-0.706,0.352c-0.527,0.126-1.081-0.053-1.436-0.462l-0.027-0.031
		c-0.534-0.538-1.088-1.091-1.867-1.206C5.72,9.561,6.522,8.427,8.049,8.374c0.763-0.027,1.909,0.508,2.054,1.588
		c0.027,0.193,0.206,0.327,0.399,0.3s0.327-0.206,0.3-0.399C10.603,8.45,9.206,7.622,8.026,7.667
		c-2.607,0.096-3.474,2.672-3.508,2.791c-0.061,0.184,0.039,0.382,0.223,0.444c0.051,0.017,0.105,0.021,0.159,0.014
		c0.764-0.095,1.245,0.382,1.859,1.004l0.027,0.027c0.404,0.444,0.973,0.702,1.573,0.714c0.557-0.021,1.092-0.22,1.527-0.569
		c0.146-0.127,0.162-0.35,0.035-0.496c-0.128-0.146-0.35-0.162-0.497-0.034l0,0L9.412,11.565z"/>
	<path fill="#EBC32E" d="M19.482,7.316c-0.034-0.111-0.905-2.695-3.509-2.791c-1.179-0.042-2.576,0.783-2.774,2.195
		c-0.028,0.193,0.106,0.371,0.299,0.399c0.193,0.027,0.372-0.107,0.399-0.3c0.152-1.081,1.29-1.615,2.054-1.588
		c1.163,0.075,2.189,0.783,2.672,1.844c-0.763,0.114-1.332,0.668-1.87,1.206l-0.027,0.027c-0.354,0.41-0.907,0.588-1.435,0.462
		c-0.258-0.067-0.498-0.187-0.706-0.351c-0.148-0.13-0.373-0.115-0.503,0.032c-0.129,0.147-0.114,0.373,0.033,0.502
		c0.435,0.349,0.97,0.548,1.526,0.569c0.601-0.011,1.17-0.27,1.573-0.714l0.026-0.027c0.615-0.614,1.1-1.103,1.859-1.004
		c0.192,0.027,0.369-0.107,0.396-0.299c0.007-0.053,0.002-0.107-0.015-0.159V7.316z"/>
	<path fill="#EBC32E" d="M16.226,6.343c-0.835,0.081-1.63,0.398-2.29,0.916c-0.689,0.538-1.232,1.242-1.577,2.046
		c-0.18,0.437-0.323,0.888-0.428,1.348c-0.135,0.591-0.228,1.19-0.279,1.794c-0.344-0.805-0.887-1.508-1.577-2.046
		c-0.66-0.518-1.455-0.835-2.291-0.916C7.59,9.478,7.426,9.629,7.419,9.825c-0.007,0.195,0.145,0.359,0.34,0.366
		c0.695,0.069,1.357,0.333,1.909,0.763c1.29,0.985,1.981,2.451,2.004,4.845v0.558c0,0.194,0.158,0.353,0.353,0.353
		c0.195,0,0.354-0.158,0.354-0.353v-3.379c0.023-2.37,0.706-4.149,1.974-5.138c0.557-0.441,1.226-0.716,1.932-0.794
		c0.195-0.007,0.348-0.171,0.34-0.366c-0.008-0.195-0.172-0.347-0.366-0.34L16.226,6.343z"/>
</g>
</svg>
